<svg xmlns="http://www.w3.org/2000/svg" width="533" height="533" fill="none" viewBox="0 0 533 533"><g clip-path="url(#clip0_107_105)"><mask id="mask0_107_105" style="mask-type:alpha" width="534" height="534" x="0" y="0" maskUnits="userSpaceOnUse"><path fill="url(#paint0_linear_107_105)" d="M533.006 266.503C533.006 119.317 413.688 0 266.503 0C119.318 0 0.00012207 119.317 0.00012207 266.503V494.417C0.00012207 515.729 17.2769 533.006 38.5888 533.006H266.503C413.688 533.006 533.006 413.688 533.006 266.503Z"/></mask><g mask="url(#mask0_107_105)"><g filter="url(#filter0_f_107_105)"><path fill="url(#paint1_linear_107_105)" d="M559.006 0H-32.4998V541.379C-32.4998 565.474 -12.9674 585.006 11.127 585.006H559.006V0Z"/></g><g filter="url(#filter1_f_107_105)"><path fill="#fff" d="M241.706 161C241.706 122.422 210.431 91.1475 171.853 91.1475V91.1475C133.274 91.1475 102 122.422 102 161V161C102 199.579 133.274 230.853 171.853 230.853V230.853C210.431 230.853 241.706 199.579 241.706 161V161Z" style="fill:#fff;fill-opacity:1"/></g><g filter="url(#filter2_f_107_105)" opacity=".7"><path fill="#fff" d="M422.555 282.955C436.091 264.202 429.408 237.772 408.585 227.707C403.597 225.296 398.134 224.03 392.595 224.001L368.715 223.877C293.049 223.481 230.694 283.146 227.754 358.755L227.439 366.845C226.585 388.814 237.909 409.466 256.893 420.556C283.361 436.02 317.245 428.853 335.186 403.997L422.555 282.955Z" style="fill:#fff;fill-opacity:1"/></g></g><path fill="#363636" d="M266.503 13C406.509 13.0001 520.005 126.497 520.005 266.503C520.005 406.508 406.509 520.006 266.503 520.006C126.498 520.006 13.0005 406.508 13.0005 266.503C13.0005 126.497 126.498 13 266.503 13ZM184.509 135.66C154.284 126.181 125.807 154.972 135.891 185.222L198.322 372.515C210.492 409.028 262.585 407.711 272.896 370.631L294.158 294.158L370.631 272.895C407.711 262.585 409.028 210.493 372.516 198.322L185.223 135.89L184.509 135.66ZM160.557 177.001C157.169 166.838 166.838 157.169 177.001 160.556L364.294 222.988L364.856 223.187C376.448 227.584 375.832 244.462 363.665 247.845L282.762 270.342C276.731 272.018 272.019 276.731 270.342 282.761L247.846 363.665C244.409 376.025 227.045 376.464 222.988 364.294L160.557 177.001Z" style="fill:color(display-p3 .2121 .2121 .2121);fill-opacity:1"/></g><defs><filter id="filter0_f_107_105" width="812.509" height="806.008" x="-143.001" y="-110.501" color-interpolation-filters="sRGB" filterUnits="userSpaceOnUse"><feFlood flood-opacity="0" result="BackgroundImageFix"/><feBlend in="SourceGraphic" in2="BackgroundImageFix" mode="normal" result="shape"/><feGaussianBlur result="effect1_foregroundBlur_107_105" stdDeviation="55.251"/></filter><filter id="filter1_f_107_105" width="274.907" height="274.907" x="34.399" y="23.547" color-interpolation-filters="sRGB" filterUnits="userSpaceOnUse"><feFlood flood-opacity="0" result="BackgroundImageFix"/><feBlend in="SourceGraphic" in2="BackgroundImageFix" mode="normal" result="shape"/><feGaussianBlur result="effect1_foregroundBlur_107_105" stdDeviation="33.8"/></filter><filter id="filter2_f_107_105" width="337.406" height="340.017" x="159.793" y="156.274" color-interpolation-filters="sRGB" filterUnits="userSpaceOnUse"><feFlood flood-opacity="0" result="BackgroundImageFix"/><feBlend in="SourceGraphic" in2="BackgroundImageFix" mode="normal" result="shape"/><feGaussianBlur result="effect1_foregroundBlur_107_105" stdDeviation="33.8"/></filter><linearGradient id="paint0_linear_107_105" x1="13" x2="295.753" y1="260.003" y2="533.006" gradientUnits="userSpaceOnUse"><stop stop-color="#D999F7" style="stop-color:color(display-p3 .851 .6 .9686);stop-opacity:1"/><stop offset=".337" stop-color="#00A365" style="stop-color:color(display-p3 0 .6399 .3972);stop-opacity:1"/><stop offset=".673" stop-color="#F8672F" style="stop-color:color(display-p3 .9725 .4039 .1843);stop-opacity:1"/><stop offset="1" stop-color="#9C9C9C" style="stop-color:color(display-p3 .6121 .6121 .6121);stop-opacity:1"/></linearGradient><linearGradient id="paint1_linear_107_105" x1="6.501" x2="428.077" y1="533.006" y2="4.444" gradientUnits="userSpaceOnUse"><stop stop-color="#EF0" style="stop-color:color(display-p3 .9333 1 0);stop-opacity:1"/><stop offset=".308" stop-color="#00FFAE" style="stop-color:color(display-p3 0 1 .6833);stop-opacity:1"/><stop offset=".668" stop-color="#00EAFF" style="stop-color:color(display-p3 0 .9167 1);stop-opacity:1"/><stop offset="1" stop-color="#00FF6A" style="stop-color:color(display-p3 0 1 .4167);stop-opacity:1"/></linearGradient><clipPath id="clip0_107_105"><rect width="533" height="533" fill="#fff" style="fill:#fff;fill-opacity:1"/></clipPath></defs></svg>