<svg xmlns="http://www.w3.org/2000/svg" width="1920" height="1080" viewBox="0 0 1920 1080"><g transform="translate(880, 420)"><path id="logo-tl" fill="#F24E1E" d="M 40 0 A 40 40 0 0 0 0 40 L 0 80 A 40 40 0 0 0 40 120 A 40 40 0 0 0 80 80 L 80 40 A 40 40 0 0 0 40 0 Z"/><path id="logo-tr" fill="#A259FF" d="M 120 0 A 40 40 0 0 0 80 40 L 80 80 A 40 40 0 0 0 120 120 A 40 40 0 0 0 160 80 L 160 40 A 40 40 0 0 0 120 0 Z"/><path id="logo-bl" fill="#1ABCFE" d="M 0 120 A 40 120 0 0 0 80 120 Z"/><path id="logo-br" fill="#0ACF83" d="M 80 120 A 40 120 0 0 0 160 120 Z"/></g></svg>